<mxfile host="app.diagrams.net" agent="Mozilla/5.0 (Windows NT 10.0; Win64; x64) AppleWebKit/537.36 (KHTML, like Gecko) Chrome/132.0.0.0 Safari/537.36" version="26.0.14">
  <diagram name="Page-1" id="UfRvtN0WD_MTOmSV6eDm">
    <mxGraphModel dx="1651" dy="913" grid="1" gridSize="10" guides="1" tooltips="1" connect="1" arrows="1" fold="1" page="1" pageScale="1" pageWidth="850" pageHeight="1100" math="0" shadow="0">
      <root>
        <mxCell id="0" />
        <mxCell id="1" parent="0" />
        <mxCell id="OdUGsTOA7TWsg05n_6C7-2" value="Course" style="whiteSpace=wrap;html=1;align=center;" parent="1" vertex="1">
          <mxGeometry x="370" y="410" width="100" height="40" as="geometry" />
        </mxCell>
        <mxCell id="OdUGsTOA7TWsg05n_6C7-3" value="Section" style="whiteSpace=wrap;html=1;align=center;strokeWidth=5;" parent="1" vertex="1">
          <mxGeometry x="590" y="290" width="100" height="40" as="geometry" />
        </mxCell>
        <mxCell id="om3eo5C21DNyq840Sv7h-9" style="edgeStyle=none;rounded=0;orthogonalLoop=1;jettySize=auto;html=1;entryX=1;entryY=0;entryDx=0;entryDy=0;" edge="1" parent="1" source="om3eo5C21DNyq840Sv7h-1" target="OdUGsTOA7TWsg05n_6C7-2">
          <mxGeometry relative="1" as="geometry" />
        </mxCell>
        <mxCell id="om3eo5C21DNyq840Sv7h-1" value="in_course" style="shape=rhombus;perimeter=rhombusPerimeter;whiteSpace=wrap;html=1;align=center;strokeWidth=5;" vertex="1" parent="1">
          <mxGeometry x="440" y="310" width="120" height="60" as="geometry" />
        </mxCell>
        <mxCell id="om3eo5C21DNyq840Sv7h-5" value="" style="endArrow=none;html=1;rounded=0;exitX=1;exitY=0;exitDx=0;exitDy=0;entryX=0;entryY=0.5;entryDx=0;entryDy=0;strokeWidth=5;" edge="1" parent="1" source="om3eo5C21DNyq840Sv7h-1" target="OdUGsTOA7TWsg05n_6C7-3">
          <mxGeometry relative="1" as="geometry">
            <mxPoint x="460" y="370" as="sourcePoint" />
            <mxPoint x="620" y="370" as="targetPoint" />
          </mxGeometry>
        </mxCell>
        <mxCell id="om3eo5C21DNyq840Sv7h-10" style="edgeStyle=none;rounded=0;orthogonalLoop=1;jettySize=auto;html=1;entryX=1;entryY=0.5;entryDx=0;entryDy=0;" edge="1" parent="1" source="om3eo5C21DNyq840Sv7h-7" target="OdUGsTOA7TWsg05n_6C7-3">
          <mxGeometry relative="1" as="geometry" />
        </mxCell>
        <mxCell id="om3eo5C21DNyq840Sv7h-7" value="in_section" style="shape=rhombus;perimeter=rhombusPerimeter;whiteSpace=wrap;html=1;align=center;strokeWidth=5;" vertex="1" parent="1">
          <mxGeometry x="750" y="280" width="120" height="60" as="geometry" />
        </mxCell>
        <mxCell id="om3eo5C21DNyq840Sv7h-11" value="Question" style="whiteSpace=wrap;html=1;align=center;strokeWidth=5;" vertex="1" parent="1">
          <mxGeometry x="930" y="290" width="100" height="40" as="geometry" />
        </mxCell>
        <mxCell id="om3eo5C21DNyq840Sv7h-13" value="" style="endArrow=none;html=1;rounded=0;exitX=1;exitY=0.5;exitDx=0;exitDy=0;entryX=0;entryY=0.5;entryDx=0;entryDy=0;strokeWidth=5;" edge="1" parent="1" source="om3eo5C21DNyq840Sv7h-7" target="om3eo5C21DNyq840Sv7h-11">
          <mxGeometry relative="1" as="geometry">
            <mxPoint x="550" y="320" as="sourcePoint" />
            <mxPoint x="600" y="320" as="targetPoint" />
          </mxGeometry>
        </mxCell>
        <mxCell id="om3eo5C21DNyq840Sv7h-14" value="Answer" style="whiteSpace=wrap;html=1;align=center;strokeWidth=5;" vertex="1" parent="1">
          <mxGeometry x="1190" y="380" width="100" height="40" as="geometry" />
        </mxCell>
        <mxCell id="om3eo5C21DNyq840Sv7h-16" style="edgeStyle=none;rounded=0;orthogonalLoop=1;jettySize=auto;html=1;entryX=1;entryY=0.5;entryDx=0;entryDy=0;" edge="1" parent="1" source="om3eo5C21DNyq840Sv7h-15" target="om3eo5C21DNyq840Sv7h-11">
          <mxGeometry relative="1" as="geometry" />
        </mxCell>
        <mxCell id="om3eo5C21DNyq840Sv7h-15" value="answer_of" style="shape=rhombus;perimeter=rhombusPerimeter;whiteSpace=wrap;html=1;align=center;strokeWidth=5;" vertex="1" parent="1">
          <mxGeometry x="1060" y="310" width="120" height="60" as="geometry" />
        </mxCell>
        <mxCell id="om3eo5C21DNyq840Sv7h-17" value="" style="endArrow=none;html=1;rounded=0;exitX=1;exitY=0.5;exitDx=0;exitDy=0;entryX=0;entryY=0.5;entryDx=0;entryDy=0;strokeWidth=5;" edge="1" parent="1" source="om3eo5C21DNyq840Sv7h-15" target="om3eo5C21DNyq840Sv7h-14">
          <mxGeometry relative="1" as="geometry">
            <mxPoint x="880" y="320" as="sourcePoint" />
            <mxPoint x="940" y="320" as="targetPoint" />
          </mxGeometry>
        </mxCell>
        <mxCell id="om3eo5C21DNyq840Sv7h-18" value="User" style="whiteSpace=wrap;html=1;align=center;" vertex="1" parent="1">
          <mxGeometry x="760" y="480" width="100" height="40" as="geometry" />
        </mxCell>
        <mxCell id="om3eo5C21DNyq840Sv7h-19" value="eml" style="ellipse;whiteSpace=wrap;html=1;align=center;" vertex="1" parent="1">
          <mxGeometry x="700" y="590" width="100" height="40" as="geometry" />
        </mxCell>
        <mxCell id="om3eo5C21DNyq840Sv7h-20" value="u_id" style="ellipse;whiteSpace=wrap;html=1;align=center;fontStyle=4;" vertex="1" parent="1">
          <mxGeometry x="610" y="550" width="100" height="40" as="geometry" />
        </mxCell>
        <mxCell id="om3eo5C21DNyq840Sv7h-22" value="pwd" style="ellipse;whiteSpace=wrap;html=1;align=center;" vertex="1" parent="1">
          <mxGeometry x="830" y="590" width="100" height="40" as="geometry" />
        </mxCell>
        <mxCell id="om3eo5C21DNyq840Sv7h-23" value="name" style="ellipse;whiteSpace=wrap;html=1;align=center;" vertex="1" parent="1">
          <mxGeometry x="910" y="540" width="100" height="40" as="geometry" />
        </mxCell>
        <mxCell id="om3eo5C21DNyq840Sv7h-26" value="" style="endArrow=none;html=1;rounded=0;exitX=1;exitY=0.5;exitDx=0;exitDy=0;entryX=0;entryY=1;entryDx=0;entryDy=0;" edge="1" parent="1" source="om3eo5C21DNyq840Sv7h-20" target="om3eo5C21DNyq840Sv7h-18">
          <mxGeometry relative="1" as="geometry">
            <mxPoint x="400" y="650" as="sourcePoint" />
            <mxPoint x="560" y="650" as="targetPoint" />
          </mxGeometry>
        </mxCell>
        <mxCell id="om3eo5C21DNyq840Sv7h-28" value="" style="endArrow=none;html=1;rounded=0;exitX=0.5;exitY=0;exitDx=0;exitDy=0;entryX=0.25;entryY=1;entryDx=0;entryDy=0;" edge="1" parent="1" source="om3eo5C21DNyq840Sv7h-19" target="om3eo5C21DNyq840Sv7h-18">
          <mxGeometry relative="1" as="geometry">
            <mxPoint x="720" y="570" as="sourcePoint" />
            <mxPoint x="770" y="530" as="targetPoint" />
          </mxGeometry>
        </mxCell>
        <mxCell id="om3eo5C21DNyq840Sv7h-29" value="" style="endArrow=none;html=1;rounded=0;exitX=0.5;exitY=0;exitDx=0;exitDy=0;entryX=0.75;entryY=1;entryDx=0;entryDy=0;" edge="1" parent="1" source="om3eo5C21DNyq840Sv7h-22" target="om3eo5C21DNyq840Sv7h-18">
          <mxGeometry relative="1" as="geometry">
            <mxPoint x="730" y="580" as="sourcePoint" />
            <mxPoint x="780" y="540" as="targetPoint" />
          </mxGeometry>
        </mxCell>
        <mxCell id="om3eo5C21DNyq840Sv7h-30" value="" style="endArrow=none;html=1;rounded=0;exitX=0;exitY=0.5;exitDx=0;exitDy=0;entryX=1;entryY=1;entryDx=0;entryDy=0;" edge="1" parent="1" source="om3eo5C21DNyq840Sv7h-23" target="om3eo5C21DNyq840Sv7h-18">
          <mxGeometry relative="1" as="geometry">
            <mxPoint x="740" y="590" as="sourcePoint" />
            <mxPoint x="790" y="550" as="targetPoint" />
          </mxGeometry>
        </mxCell>
        <mxCell id="om3eo5C21DNyq840Sv7h-33" style="edgeStyle=none;rounded=0;orthogonalLoop=1;jettySize=auto;html=1;entryX=0;entryY=0.5;entryDx=0;entryDy=0;exitX=1;exitY=0.5;exitDx=0;exitDy=0;" edge="1" parent="1" source="om3eo5C21DNyq840Sv7h-31" target="om3eo5C21DNyq840Sv7h-18">
          <mxGeometry relative="1" as="geometry" />
        </mxCell>
        <mxCell id="om3eo5C21DNyq840Sv7h-31" value="made_by" style="shape=rhombus;perimeter=rhombusPerimeter;whiteSpace=wrap;html=1;align=center;" vertex="1" parent="1">
          <mxGeometry x="540" y="470" width="120" height="60" as="geometry" />
        </mxCell>
        <mxCell id="om3eo5C21DNyq840Sv7h-32" value="" style="endArrow=none;html=1;rounded=0;exitX=0.5;exitY=1;exitDx=0;exitDy=0;entryX=0;entryY=0.5;entryDx=0;entryDy=0;strokeWidth=4;" edge="1" parent="1" source="OdUGsTOA7TWsg05n_6C7-2" target="om3eo5C21DNyq840Sv7h-31">
          <mxGeometry relative="1" as="geometry">
            <mxPoint x="270" y="460" as="sourcePoint" />
            <mxPoint x="430" y="460" as="targetPoint" />
          </mxGeometry>
        </mxCell>
        <mxCell id="om3eo5C21DNyq840Sv7h-35" style="edgeStyle=none;rounded=0;orthogonalLoop=1;jettySize=auto;html=1;entryX=0.25;entryY=0;entryDx=0;entryDy=0;" edge="1" parent="1" source="om3eo5C21DNyq840Sv7h-34" target="om3eo5C21DNyq840Sv7h-18">
          <mxGeometry relative="1" as="geometry" />
        </mxCell>
        <mxCell id="om3eo5C21DNyq840Sv7h-34" value="has_finished" style="shape=rhombus;perimeter=rhombusPerimeter;whiteSpace=wrap;html=1;align=center;" vertex="1" parent="1">
          <mxGeometry x="670" y="380" width="120" height="60" as="geometry" />
        </mxCell>
        <mxCell id="om3eo5C21DNyq840Sv7h-36" value="" style="endArrow=none;html=1;rounded=0;exitX=0.5;exitY=1;exitDx=0;exitDy=0;entryX=0;entryY=0;entryDx=0;entryDy=0;" edge="1" parent="1" source="OdUGsTOA7TWsg05n_6C7-3" target="om3eo5C21DNyq840Sv7h-34">
          <mxGeometry relative="1" as="geometry">
            <mxPoint x="890" y="600" as="sourcePoint" />
            <mxPoint x="845" y="530" as="targetPoint" />
          </mxGeometry>
        </mxCell>
        <mxCell id="om3eo5C21DNyq840Sv7h-37" value="f_date" style="ellipse;whiteSpace=wrap;html=1;align=center;" vertex="1" parent="1">
          <mxGeometry x="540" y="390" width="100" height="40" as="geometry" />
        </mxCell>
        <mxCell id="om3eo5C21DNyq840Sv7h-38" value="" style="endArrow=none;html=1;rounded=0;exitX=1;exitY=0.5;exitDx=0;exitDy=0;entryX=0;entryY=0.5;entryDx=0;entryDy=0;" edge="1" parent="1" source="om3eo5C21DNyq840Sv7h-37" target="om3eo5C21DNyq840Sv7h-34">
          <mxGeometry relative="1" as="geometry">
            <mxPoint x="650" y="340" as="sourcePoint" />
            <mxPoint x="710" y="405" as="targetPoint" />
          </mxGeometry>
        </mxCell>
        <mxCell id="om3eo5C21DNyq840Sv7h-39" value="got_right" style="shape=rhombus;perimeter=rhombusPerimeter;whiteSpace=wrap;html=1;align=center;" vertex="1" parent="1">
          <mxGeometry x="910" y="390" width="120" height="60" as="geometry" />
        </mxCell>
        <mxCell id="om3eo5C21DNyq840Sv7h-40" value="got_wrong" style="shape=rhombus;perimeter=rhombusPerimeter;whiteSpace=wrap;html=1;align=center;" vertex="1" parent="1">
          <mxGeometry x="1020" y="440" width="120" height="60" as="geometry" />
        </mxCell>
        <mxCell id="om3eo5C21DNyq840Sv7h-43" value="" style="endArrow=none;html=1;rounded=0;exitX=0;exitY=1;exitDx=0;exitDy=0;entryX=1;entryY=0;entryDx=0;entryDy=0;" edge="1" parent="1" source="om3eo5C21DNyq840Sv7h-39" target="om3eo5C21DNyq840Sv7h-18">
          <mxGeometry relative="1" as="geometry">
            <mxPoint x="920" y="570" as="sourcePoint" />
            <mxPoint x="870" y="530" as="targetPoint" />
          </mxGeometry>
        </mxCell>
        <mxCell id="om3eo5C21DNyq840Sv7h-44" value="" style="endArrow=none;html=1;rounded=0;exitX=0;exitY=0.5;exitDx=0;exitDy=0;entryX=1;entryY=0.5;entryDx=0;entryDy=0;" edge="1" parent="1" source="om3eo5C21DNyq840Sv7h-40" target="om3eo5C21DNyq840Sv7h-18">
          <mxGeometry relative="1" as="geometry">
            <mxPoint x="930" y="580" as="sourcePoint" />
            <mxPoint x="880" y="540" as="targetPoint" />
          </mxGeometry>
        </mxCell>
        <mxCell id="om3eo5C21DNyq840Sv7h-45" value="" style="endArrow=none;html=1;rounded=0;exitX=0.5;exitY=1;exitDx=0;exitDy=0;entryX=1;entryY=0.5;entryDx=0;entryDy=0;" edge="1" parent="1" source="om3eo5C21DNyq840Sv7h-14" target="om3eo5C21DNyq840Sv7h-40">
          <mxGeometry relative="1" as="geometry">
            <mxPoint x="1030" y="500" as="sourcePoint" />
            <mxPoint x="870" y="510" as="targetPoint" />
          </mxGeometry>
        </mxCell>
        <mxCell id="om3eo5C21DNyq840Sv7h-46" value="" style="endArrow=none;html=1;rounded=0;exitX=0.5;exitY=0;exitDx=0;exitDy=0;entryX=1;entryY=1;entryDx=0;entryDy=0;" edge="1" parent="1" source="om3eo5C21DNyq840Sv7h-40" target="om3eo5C21DNyq840Sv7h-11">
          <mxGeometry relative="1" as="geometry">
            <mxPoint x="1040" y="510" as="sourcePoint" />
            <mxPoint x="880" y="520" as="targetPoint" />
          </mxGeometry>
        </mxCell>
        <mxCell id="om3eo5C21DNyq840Sv7h-47" value="" style="endArrow=none;html=1;rounded=0;exitX=0.5;exitY=1;exitDx=0;exitDy=0;entryX=0.5;entryY=0;entryDx=0;entryDy=0;" edge="1" parent="1" source="om3eo5C21DNyq840Sv7h-11" target="om3eo5C21DNyq840Sv7h-39">
          <mxGeometry relative="1" as="geometry">
            <mxPoint x="1050" y="520" as="sourcePoint" />
            <mxPoint x="890" y="530" as="targetPoint" />
          </mxGeometry>
        </mxCell>
        <mxCell id="om3eo5C21DNyq840Sv7h-48" value="" style="endArrow=none;html=1;rounded=0;exitX=0;exitY=1;exitDx=0;exitDy=0;entryX=1;entryY=0.5;entryDx=0;entryDy=0;" edge="1" parent="1" source="om3eo5C21DNyq840Sv7h-14" target="om3eo5C21DNyq840Sv7h-39">
          <mxGeometry relative="1" as="geometry">
            <mxPoint x="990" y="340" as="sourcePoint" />
            <mxPoint x="950" y="400" as="targetPoint" />
          </mxGeometry>
        </mxCell>
        <mxCell id="om3eo5C21DNyq840Sv7h-50" value="w_date" style="ellipse;whiteSpace=wrap;html=1;align=center;" vertex="1" parent="1">
          <mxGeometry x="1130" y="500" width="100" height="40" as="geometry" />
        </mxCell>
        <mxCell id="om3eo5C21DNyq840Sv7h-51" value="r_date" style="ellipse;whiteSpace=wrap;html=1;align=center;" vertex="1" parent="1">
          <mxGeometry x="840" y="360" width="100" height="40" as="geometry" />
        </mxCell>
        <mxCell id="om3eo5C21DNyq840Sv7h-52" value="" style="endArrow=none;html=1;rounded=0;exitX=1;exitY=1;exitDx=0;exitDy=0;entryX=0;entryY=0;entryDx=0;entryDy=0;" edge="1" parent="1" source="om3eo5C21DNyq840Sv7h-51" target="om3eo5C21DNyq840Sv7h-39">
          <mxGeometry relative="1" as="geometry">
            <mxPoint x="950" y="445" as="sourcePoint" />
            <mxPoint x="870" y="490" as="targetPoint" />
          </mxGeometry>
        </mxCell>
        <mxCell id="om3eo5C21DNyq840Sv7h-54" value="" style="endArrow=none;html=1;rounded=0;exitX=0;exitY=0;exitDx=0;exitDy=0;entryX=1;entryY=1;entryDx=0;entryDy=0;" edge="1" parent="1" source="om3eo5C21DNyq840Sv7h-50" target="om3eo5C21DNyq840Sv7h-40">
          <mxGeometry relative="1" as="geometry">
            <mxPoint x="935" y="404" as="sourcePoint" />
            <mxPoint x="950" y="415" as="targetPoint" />
          </mxGeometry>
        </mxCell>
        <mxCell id="om3eo5C21DNyq840Sv7h-55" value="text" style="ellipse;whiteSpace=wrap;html=1;align=center;" vertex="1" parent="1">
          <mxGeometry x="1200" y="270" width="100" height="40" as="geometry" />
        </mxCell>
        <mxCell id="om3eo5C21DNyq840Sv7h-57" value="" style="endArrow=none;html=1;rounded=0;exitX=0.5;exitY=1;exitDx=0;exitDy=0;entryX=0.5;entryY=0;entryDx=0;entryDy=0;" edge="1" parent="1" source="om3eo5C21DNyq840Sv7h-55" target="om3eo5C21DNyq840Sv7h-14">
          <mxGeometry relative="1" as="geometry">
            <mxPoint x="1310" y="340" as="sourcePoint" />
            <mxPoint x="1040" y="430" as="targetPoint" />
          </mxGeometry>
        </mxCell>
        <mxCell id="om3eo5C21DNyq840Sv7h-58" value="text" style="ellipse;whiteSpace=wrap;html=1;align=center;" vertex="1" parent="1">
          <mxGeometry x="930" y="190" width="100" height="40" as="geometry" />
        </mxCell>
        <mxCell id="om3eo5C21DNyq840Sv7h-59" value="" style="endArrow=none;html=1;rounded=0;exitX=0.5;exitY=1;exitDx=0;exitDy=0;entryX=0.5;entryY=0;entryDx=0;entryDy=0;" edge="1" parent="1" source="om3eo5C21DNyq840Sv7h-58" target="om3eo5C21DNyq840Sv7h-11">
          <mxGeometry relative="1" as="geometry">
            <mxPoint x="1360" y="270" as="sourcePoint" />
            <mxPoint x="1360" y="300" as="targetPoint" />
          </mxGeometry>
        </mxCell>
        <mxCell id="om3eo5C21DNyq840Sv7h-61" value="" style="endArrow=none;html=1;rounded=0;exitX=0.5;exitY=1;exitDx=0;exitDy=0;entryX=0.75;entryY=0;entryDx=0;entryDy=0;" edge="1" parent="1" source="om3eo5C21DNyq840Sv7h-64" target="om3eo5C21DNyq840Sv7h-11">
          <mxGeometry relative="1" as="geometry">
            <mxPoint x="1090" y="250" as="sourcePoint" />
            <mxPoint x="990" y="300" as="targetPoint" />
          </mxGeometry>
        </mxCell>
        <mxCell id="om3eo5C21DNyq840Sv7h-62" value="right_answer" style="ellipse;whiteSpace=wrap;html=1;align=center;" vertex="1" parent="1">
          <mxGeometry x="810" y="210" width="100" height="40" as="geometry" />
        </mxCell>
        <mxCell id="om3eo5C21DNyq840Sv7h-63" value="" style="endArrow=none;html=1;rounded=0;exitX=0.5;exitY=1;exitDx=0;exitDy=0;entryX=0.25;entryY=0;entryDx=0;entryDy=0;" edge="1" parent="1" source="om3eo5C21DNyq840Sv7h-62" target="om3eo5C21DNyq840Sv7h-11">
          <mxGeometry relative="1" as="geometry">
            <mxPoint x="990" y="240" as="sourcePoint" />
            <mxPoint x="990" y="300" as="targetPoint" />
          </mxGeometry>
        </mxCell>
        <mxCell id="om3eo5C21DNyq840Sv7h-64" value="q_id" style="ellipse;whiteSpace=wrap;html=1;align=center;fontStyle=4;" vertex="1" parent="1">
          <mxGeometry x="1050" y="210" width="100" height="40" as="geometry" />
        </mxCell>
        <mxCell id="om3eo5C21DNyq840Sv7h-65" value="s_name" style="ellipse;whiteSpace=wrap;html=1;align=center;" vertex="1" parent="1">
          <mxGeometry x="590" y="190" width="100" height="40" as="geometry" />
        </mxCell>
        <mxCell id="om3eo5C21DNyq840Sv7h-66" value="s_text" style="ellipse;whiteSpace=wrap;html=1;align=center;" vertex="1" parent="1">
          <mxGeometry x="475" y="210" width="100" height="40" as="geometry" />
        </mxCell>
        <mxCell id="om3eo5C21DNyq840Sv7h-68" value="&lt;span style=&quot;border-bottom: 1px dotted&quot;&gt;Order&lt;/span&gt;" style="ellipse;whiteSpace=wrap;html=1;align=center;" vertex="1" parent="1">
          <mxGeometry x="690" y="210" width="100" height="40" as="geometry" />
        </mxCell>
        <mxCell id="om3eo5C21DNyq840Sv7h-69" value="" style="endArrow=none;html=1;rounded=0;exitX=1;exitY=1;exitDx=0;exitDy=0;entryX=0.25;entryY=0;entryDx=0;entryDy=0;" edge="1" parent="1" source="om3eo5C21DNyq840Sv7h-66" target="OdUGsTOA7TWsg05n_6C7-3">
          <mxGeometry relative="1" as="geometry">
            <mxPoint x="870" y="260" as="sourcePoint" />
            <mxPoint x="965" y="300" as="targetPoint" />
          </mxGeometry>
        </mxCell>
        <mxCell id="om3eo5C21DNyq840Sv7h-70" value="" style="endArrow=none;html=1;rounded=0;exitX=0.5;exitY=1;exitDx=0;exitDy=0;entryX=0.5;entryY=0;entryDx=0;entryDy=0;" edge="1" parent="1" source="om3eo5C21DNyq840Sv7h-65" target="OdUGsTOA7TWsg05n_6C7-3">
          <mxGeometry relative="1" as="geometry">
            <mxPoint x="880" y="270" as="sourcePoint" />
            <mxPoint x="975" y="310" as="targetPoint" />
          </mxGeometry>
        </mxCell>
        <mxCell id="om3eo5C21DNyq840Sv7h-71" value="" style="endArrow=none;html=1;rounded=0;exitX=0.5;exitY=1;exitDx=0;exitDy=0;entryX=0.75;entryY=0;entryDx=0;entryDy=0;" edge="1" parent="1" source="om3eo5C21DNyq840Sv7h-68" target="OdUGsTOA7TWsg05n_6C7-3">
          <mxGeometry relative="1" as="geometry">
            <mxPoint x="890" y="280" as="sourcePoint" />
            <mxPoint x="985" y="320" as="targetPoint" />
          </mxGeometry>
        </mxCell>
        <mxCell id="om3eo5C21DNyq840Sv7h-72" value="title" style="ellipse;whiteSpace=wrap;html=1;align=center;" vertex="1" parent="1">
          <mxGeometry x="310" y="290" width="100" height="40" as="geometry" />
        </mxCell>
        <mxCell id="om3eo5C21DNyq840Sv7h-73" value="subject" style="ellipse;whiteSpace=wrap;html=1;align=center;" vertex="1" parent="1">
          <mxGeometry x="220" y="340" width="100" height="40" as="geometry" />
        </mxCell>
        <mxCell id="om3eo5C21DNyq840Sv7h-74" value="link" style="ellipse;whiteSpace=wrap;html=1;align=center;" vertex="1" parent="1">
          <mxGeometry x="200" y="410" width="100" height="40" as="geometry" />
        </mxCell>
        <mxCell id="om3eo5C21DNyq840Sv7h-75" value="date_added" style="ellipse;whiteSpace=wrap;html=1;align=center;" vertex="1" parent="1">
          <mxGeometry x="230" y="480" width="100" height="40" as="geometry" />
        </mxCell>
        <mxCell id="om3eo5C21DNyq840Sv7h-76" value="c_id" style="ellipse;whiteSpace=wrap;html=1;align=center;fontStyle=4;" vertex="1" parent="1">
          <mxGeometry x="350" y="510" width="100" height="40" as="geometry" />
        </mxCell>
        <mxCell id="om3eo5C21DNyq840Sv7h-77" value="" style="endArrow=none;html=1;rounded=0;exitX=0.5;exitY=1;exitDx=0;exitDy=0;entryX=0.25;entryY=0;entryDx=0;entryDy=0;" edge="1" parent="1" source="om3eo5C21DNyq840Sv7h-72" target="OdUGsTOA7TWsg05n_6C7-2">
          <mxGeometry relative="1" as="geometry">
            <mxPoint x="570" y="254" as="sourcePoint" />
            <mxPoint x="625" y="300" as="targetPoint" />
          </mxGeometry>
        </mxCell>
        <mxCell id="om3eo5C21DNyq840Sv7h-78" value="" style="endArrow=none;html=1;rounded=0;exitX=0.5;exitY=1;exitDx=0;exitDy=0;entryX=0;entryY=0;entryDx=0;entryDy=0;" edge="1" parent="1" source="om3eo5C21DNyq840Sv7h-73" target="OdUGsTOA7TWsg05n_6C7-2">
          <mxGeometry relative="1" as="geometry">
            <mxPoint x="580" y="264" as="sourcePoint" />
            <mxPoint x="635" y="310" as="targetPoint" />
          </mxGeometry>
        </mxCell>
        <mxCell id="om3eo5C21DNyq840Sv7h-79" value="" style="endArrow=none;html=1;rounded=0;exitX=1;exitY=0.5;exitDx=0;exitDy=0;entryX=0;entryY=0.5;entryDx=0;entryDy=0;" edge="1" parent="1" source="om3eo5C21DNyq840Sv7h-74" target="OdUGsTOA7TWsg05n_6C7-2">
          <mxGeometry relative="1" as="geometry">
            <mxPoint x="590" y="274" as="sourcePoint" />
            <mxPoint x="645" y="320" as="targetPoint" />
          </mxGeometry>
        </mxCell>
        <mxCell id="om3eo5C21DNyq840Sv7h-80" value="" style="endArrow=none;html=1;rounded=0;exitX=1;exitY=0.5;exitDx=0;exitDy=0;entryX=0;entryY=1;entryDx=0;entryDy=0;" edge="1" parent="1" source="om3eo5C21DNyq840Sv7h-75" target="OdUGsTOA7TWsg05n_6C7-2">
          <mxGeometry relative="1" as="geometry">
            <mxPoint x="600" y="284" as="sourcePoint" />
            <mxPoint x="655" y="330" as="targetPoint" />
          </mxGeometry>
        </mxCell>
        <mxCell id="om3eo5C21DNyq840Sv7h-81" value="" style="endArrow=none;html=1;rounded=0;exitX=0.5;exitY=0;exitDx=0;exitDy=0;entryX=0.25;entryY=1;entryDx=0;entryDy=0;" edge="1" parent="1" source="om3eo5C21DNyq840Sv7h-76" target="OdUGsTOA7TWsg05n_6C7-2">
          <mxGeometry relative="1" as="geometry">
            <mxPoint x="610" y="294" as="sourcePoint" />
            <mxPoint x="665" y="340" as="targetPoint" />
          </mxGeometry>
        </mxCell>
      </root>
    </mxGraphModel>
  </diagram>
</mxfile>
